# xmcd CD database file
#
# Track frame offsets:
#	150
#	2509
#	22407
#	40644
#	57820
#	77696
#	93512
#	107407
#	127271
#	152919
#	167814
#
# Disc length: 2558 seconds
#
# Revision: 2
# Processed by: cddbd v1.5.2PL0 Copyright (c) Steve Scherf et al.
# Submitted via: CDex 1.51
#
DISCID=8409fc0b
DTITLE=אפרת גוש - אפרת גוש
DYEAR=2005
DGENRE=Jazz
TTITLE0=פתיחה
TTITLE1=תמיד כשאתה בא
TTITLE2=דיאטה
TTITLE3=פעם בחיים
TTITLE4=מה שקרה
TTITLE5=בוא אליי
TTITLE6=מועדון ריקודים
TTITLE7=טוב לבד
TTITLE8=שעתיים אחרי
TTITLE9=לילה טוב
TTITLE10=georgia
EXTD=YEAR: 2005
EXTT0=
EXTT1=
EXTT2=
EXTT3=
EXTT4=
EXTT5=
EXTT6=
EXTT7=
EXTT8=
EXTT9=
EXTT10=
PLAYORDER=
